<svg width="1180" height="94" viewBox="0 0 1180 94" fill="none" xmlns="http://www.w3.org/2000/svg">
<path d="M1180 0H0V57H1180V0Z" fill="#DA1333"/>
<path d="M184.596 26.25L182.092 19L179.839 26.25H172.078L178.337 30.75L175.833 38L182.092 33.5L188.351 38L186.098 30.75L192.357 26.25H184.596Z" fill="white"/>
<path d="M131.518 26.25L129.015 19L126.761 26.25H119L125.259 30.75L122.755 38L129.015 33.5L135.274 38L133.02 30.75L139.279 26.25H131.518Z" fill="white"/>
<path d="M158.057 26.25L155.553 19L153.3 26.25H145.538L151.798 30.75L149.294 38L155.553 33.5L161.812 38L159.559 30.75L165.818 26.25H158.057Z" fill="white"/>
<path d="M245.434 26.25H237.673L235.169 19L232.916 26.25H225.155L231.414 30.75L228.91 38L235.169 33.5L241.428 38L239.175 30.75L245.434 26.25Z" fill="white"/>
<path d="M211.134 26.25L208.63 19L206.377 26.25H198.616L204.875 30.75L202.371 38L208.63 33.5L214.89 38L212.636 30.75L218.895 26.25H211.134Z" fill="white"/>
<path d="M317.162 26.25L314.658 19L312.405 26.25H304.643L310.903 30.75L308.399 38L314.658 33.5L320.917 38L318.664 30.75L324.923 26.25H317.162Z" fill="white"/>
<path d="M264.084 26.25L261.58 19L259.327 26.25H251.566L257.825 30.75L255.321 38L261.58 33.5L267.839 38L265.586 30.75L271.845 26.25H264.084Z" fill="white"/>
<path d="M290.622 26.25L288.119 19L285.866 26.25H278.104L284.363 30.75L281.86 38L288.119 33.5L294.378 38L292.125 30.75L298.384 26.25H290.622Z" fill="white"/>
<path d="M378 26.25H370.239L367.735 19L365.482 26.25H357.721L363.98 30.75L361.476 38L367.735 33.5L373.994 38L371.741 30.75L378 26.25Z" fill="white"/>
<path d="M343.7 26.25L341.196 19L338.943 26.25H331.182L337.441 30.75L334.937 38L341.196 33.5L347.455 38L345.202 30.75L351.461 26.25H343.7Z" fill="white"/>
<path d="M887.6 26.25L885.09 19L882.84 26.25H875.08L881.34 30.75L878.83 38L885.09 33.5L891.35 38L889.1 30.75L895.36 26.25H887.6Z" fill="white"/>
<path d="M834.518 26.25L832.015 19L829.761 26.25H822L828.259 30.75L825.755 38L832.015 33.5L838.274 38L836.02 30.75L842.279 26.25H834.518Z" fill="white"/>
<path d="M861.057 26.25L858.553 19L856.3 26.25H848.538L854.798 30.75L852.294 38L858.553 33.5L864.812 38L862.559 30.75L868.818 26.25H861.057Z" fill="white"/>
<path d="M948.43 26.25H940.67L938.17 19L935.92 26.25H928.15L934.41 30.75L931.91 38L938.17 33.5L944.43 38L942.18 30.75L948.43 26.25Z" fill="white"/>
<path d="M914.13 26.25L911.63 19L909.38 26.25H901.62L907.88 30.75L905.37 38L911.63 33.5L917.89 38L915.64 30.75L921.9 26.25H914.13Z" fill="white"/>
<path d="M1020.16 26.25L1017.66 19L1015.4 26.25H1007.64L1013.9 30.75L1011.4 38L1017.66 33.5L1023.92 38L1021.66 30.75L1027.92 26.25H1020.16Z" fill="white"/>
<path d="M967.08 26.25L964.58 19L962.33 26.25H954.57L960.82 30.75L958.32 38L964.58 33.5L970.84 38L968.59 30.75L974.85 26.25H967.08Z" fill="white"/>
<path d="M993.62 26.25L991.12 19L988.87 26.25H981.1L987.36 30.75L984.86 38L991.12 33.5L997.38 38L995.12 30.75L1001.38 26.25H993.62Z" fill="white"/>
<path d="M1081 26.25H1073.24L1070.74 19L1068.48 26.25H1060.72L1066.98 30.75L1064.48 38L1070.74 33.5L1076.99 38L1074.74 30.75L1081 26.25Z" fill="white"/>
<path d="M1046.7 26.25L1044.2 19L1041.94 26.25H1034.18L1040.44 30.75L1037.94 38L1044.2 33.5L1050.46 38L1048.2 30.75L1054.46 26.25H1046.7Z" fill="white"/>
<path d="M589.5 94C612.972 94 632 74.9721 632 51.5C632 28.0279 612.972 9 589.5 9C566.028 9 547 28.0279 547 51.5C547 74.9721 566.028 94 589.5 94Z" fill="white"/>
<g filter="url(#filter0_d_1_101)">
<mask id="mask0_1_101" style="mask-type:luminance" maskUnits="userSpaceOnUse" x="555" y="17" width="69" height="68">
<path d="M623.457 50.985C623.457 32.516 608.254 17.5435 589.5 17.5435C570.746 17.5435 555.543 32.516 555.543 50.985C555.543 69.455 570.746 84.428 589.5 84.428C608.254 84.428 623.457 69.455 623.457 50.985Z" fill="white"/>
</mask>
<g mask="url(#mask0_1_101)">
<path d="M623.457 50.985C623.457 32.516 608.254 17.5435 589.5 17.5435C570.746 17.5435 555.543 32.516 555.543 50.985C555.543 69.455 570.746 84.428 589.5 84.428C608.254 84.428 623.457 69.455 623.457 50.985Z" fill="white"/>
<mask id="mask1_1_101" style="mask-type:luminance" maskUnits="userSpaceOnUse" x="528" y="17" width="123" height="72">
<path d="M650.23 17.5435H528.77V88.929H650.23V17.5435Z" fill="white"/>
</mask>
<g mask="url(#mask1_1_101)">
<path d="M650.23 17.8125H528.77V88.665H650.23V17.8125Z" fill="white"/>
<path d="M650.128 17.5435H528.77V23.1494H650.128V17.5435Z" fill="#FF001D"/>
<path d="M650.128 28.5078H528.77V34.111H650.128V28.5078Z" fill="#FF001D"/>
<path d="M650.128 39.47H528.77V45.076H650.128V39.47Z" fill="#FF001D"/>
<path d="M650.128 50.435H528.77V56.038H650.128V50.435Z" fill="#FF001D"/>
<path d="M650.128 61.396H528.77V67.002H650.128V61.396Z" fill="#FF001D"/>
<path d="M650.128 72.361H528.77V77.967H650.128V72.361Z" fill="#FF001D"/>
<path d="M583.891 17.5435H528.775V56.038H583.891V17.5435Z" fill="#2A2C73"/>
<path d="M556.422 22.9688L556.937 24.5392H558.605L557.255 25.51L557.772 27.0828L556.422 26.1096L555.071 27.0828L555.586 25.51L554.235 24.5392H555.904L556.422 22.9688Z" fill="white"/>
<path d="M556.422 30.6851L556.937 32.255H558.605L557.255 33.229L557.772 34.799L556.422 33.828L555.071 34.799L555.586 33.229L554.235 32.255H555.904L556.422 30.6851Z" fill="white"/>
<path d="M556.422 38.402L556.937 39.975H558.605L557.255 40.946L557.772 42.516L556.422 41.545L555.071 42.516L555.586 40.946L554.235 39.975H555.904L556.422 38.402Z" fill="white"/>
<path d="M556.422 46.121L556.937 47.691H558.605L557.255 48.662L557.772 50.235L556.422 49.264L555.071 50.235L555.586 48.662L554.235 47.691H555.904L556.422 46.121Z" fill="white"/>
<path d="M565.628 22.9688L566.146 24.5392H567.814L566.464 25.51L566.979 27.0828L565.628 26.1096L564.278 27.0828L564.795 25.51L563.444 24.5392H565.113L565.628 22.9688Z" fill="white"/>
<path d="M565.628 30.6851L566.146 32.255H567.814L566.464 33.229L566.979 34.799L565.628 33.828L564.278 34.799L564.795 33.229L563.444 32.255H565.113L565.628 30.6851Z" fill="white"/>
<path d="M565.628 38.402L566.146 39.975H567.814L566.464 40.946L566.979 42.516L565.628 41.545L564.278 42.516L564.795 40.946L563.444 39.975H565.113L565.628 38.402Z" fill="white"/>
<path d="M565.628 46.121L566.146 47.691H567.814L566.464 48.662L566.979 50.235L565.628 49.264L564.278 50.235L564.795 48.662L563.444 47.691H565.113L565.628 46.121Z" fill="white"/>
<path d="M574.837 22.9688L575.352 24.5392H577.021L575.67 25.51L576.188 27.0828L574.837 26.1096L573.487 27.0828L574.002 25.51L572.651 24.5392H574.32L574.837 22.9688Z" fill="white"/>
<path d="M574.837 30.6851L575.352 32.255H577.021L575.67 33.229L576.188 34.799L574.837 33.828L573.487 34.799L574.002 33.229L572.651 32.255H574.32L574.837 30.6851Z" fill="white"/>
<path d="M574.837 38.402L575.352 39.975H577.021L575.67 40.946L576.188 42.516L574.837 41.545L573.487 42.516L574.002 40.946L572.651 39.975H574.32L574.837 38.402Z" fill="white"/>
<path d="M574.837 46.121L575.352 47.691H577.021L575.67 48.662L576.188 50.235L574.837 49.264L573.487 50.235L574.002 48.662L572.651 47.691H574.32L574.837 46.121Z" fill="white"/>
<path d="M561.025 19.0186L561.54 20.589H563.209L561.858 21.5598L562.376 23.1326L561.025 22.1594L559.674 23.1326L560.189 21.5598L558.839 20.589H560.51L561.025 19.0186Z" fill="white"/>
<path d="M561.025 26.7354L561.54 28.3058H563.209L561.858 29.279L562.376 30.8494L561.025 29.8786L559.674 30.8494L560.189 29.279L558.839 28.3058H560.51L561.025 26.7354Z" fill="white"/>
<path d="M561.025 34.452L561.54 36.024H563.209L561.858 36.995L562.376 38.566L561.025 37.595L559.674 38.566L560.189 36.995L558.839 36.024H560.51L561.025 34.452Z" fill="white"/>
<path d="M561.025 42.171L561.54 43.741H563.209L561.858 44.712L562.376 46.285L561.025 45.314L559.674 46.285L560.189 44.712L558.839 43.741H560.51L561.025 42.171Z" fill="white"/>
<path d="M561.025 49.887L561.54 51.46H563.209L561.858 52.431L562.376 54.001L561.025 53.031L559.674 54.001L560.189 52.431L558.839 51.46H560.51L561.025 49.887Z" fill="white"/>
<path d="M570.171 19.0186L570.688 20.589H572.357L571.007 21.5598L571.522 23.1326L570.171 22.1594L568.82 23.1326L569.338 21.5598L567.987 20.589H569.656L570.171 19.0186Z" fill="white"/>
<path d="M570.171 26.7354L570.688 28.3058H572.357L571.007 29.279L571.522 30.8494L570.171 29.8786L568.82 30.8494L569.338 29.279L567.987 28.3058H569.656L570.171 26.7354Z" fill="white"/>
<path d="M570.171 34.452L570.688 36.024H572.357L571.007 36.995L571.522 38.566L570.171 37.595L568.82 38.566L569.338 36.995L567.987 36.024H569.656L570.171 34.452Z" fill="white"/>
<path d="M570.171 42.171L570.688 43.741H572.357L571.007 44.712L571.522 46.285L570.171 45.314L568.82 46.285L569.338 44.712L567.987 43.741H569.656L570.171 42.171Z" fill="white"/>
<path d="M570.171 49.887L570.688 51.46H572.357L571.007 52.431L571.522 54.001L570.171 53.031L568.82 54.001L569.338 52.431L567.987 51.46H569.656L570.171 49.887Z" fill="white"/>
<path d="M579.501 19.0186L580.019 20.589H581.688L580.337 21.5598L580.852 23.1326L579.501 22.1594L578.151 23.1326L578.668 21.5598L577.318 20.589H578.986L579.501 19.0186Z" fill="white"/>
<path d="M579.501 26.7354L580.019 28.3058H581.688L580.337 29.279L580.852 30.8494L579.501 29.8786L578.151 30.8494L578.668 29.279L577.318 28.3058H578.986L579.501 26.7354Z" fill="white"/>
<path d="M579.501 34.452L580.019 36.024H581.688L580.337 36.995L580.852 38.566L579.501 37.595L578.151 38.566L578.668 36.995L577.318 36.024H578.986L579.501 34.452Z" fill="white"/>
<path d="M579.501 42.171L580.019 43.741H581.688L580.337 44.712L580.852 46.285L579.501 45.314L578.151 46.285L578.668 44.712L577.318 43.741H578.986L579.501 42.171Z" fill="white"/>
<path d="M579.501 49.887L580.019 51.46H581.688L580.337 52.431L580.852 54.001L579.501 53.031L578.151 54.001L578.668 52.431L577.318 51.46H578.986L579.501 49.887Z" fill="white"/>
</g>
<g filter="url(#filter1_d_1_101)">
<path d="M599.614 41.252H578.387C574.484 41.252 572.01 45.398 573.973 48.75L587.074 71.113C587.929 72.573 590.072 72.573 590.927 71.113L604.03 48.75C605.991 45.404 603.517 41.252 599.617 41.252H599.614ZM587.064 64.407L584.21 58.969L577.326 46.843C576.872 46.067 577.433 45.072 578.384 45.072H587.061V64.409L587.064 64.407ZM600.669 46.84L593.788 58.971L590.935 64.407V45.069H599.612C600.563 45.069 601.124 46.064 600.669 46.84Z" fill="white"/>
<path d="M573.326 49.129L586.427 71.492C587.572 73.447 590.429 73.447 591.574 71.492L604.677 49.129C606.945 45.259 604.07 40.502 599.617 40.502H599.614H578.387C573.932 40.502 571.056 45.254 573.326 49.129ZM578.384 45.822H586.311V61.358L584.875 58.62L584.869 58.609L584.863 58.598L577.978 46.472L577.973 46.464C577.821 46.203 577.994 45.822 578.384 45.822ZM600.022 46.461L600.017 46.47L593.135 58.601L593.129 58.612L593.124 58.623L591.685 61.364V45.819H599.612C600.001 45.819 600.175 46.201 600.022 46.461Z" stroke="#0D0E34" stroke-width="1.5"/>
</g>
<path d="M605.162 39.044C605.296 39.183 605.427 39.323 605.564 39.458C606.325 40.204 606.653 41.795 605.966 42.904C605.615 43.47 605.312 44.062 604.76 44.472C604.182 44.901 603.549 45.244 602.85 45.389C600.952 45.783 599.062 45.775 597.197 45.147C596.177 44.803 595.139 44.515 594.116 44.181C592.546 43.668 590.987 43.122 589.414 42.619C588.65 42.375 587.869 42.182 587.09 41.989C585.304 41.545 583.539 41.74 581.773 42.133C580.355 42.448 579.031 42.973 577.76 43.667C576.208 44.515 574.633 45.321 573.058 46.125C572.258 46.534 571.41 46.812 570.5 46.872C569.869 46.914 569.259 46.84 568.681 46.568C568.366 46.42 568.034 46.299 567.737 46.119C567.034 45.694 566.634 45.06 566.703 44.236C566.775 43.38 567.348 42.857 568.11 42.562C568.358 42.466 568.679 42.499 568.954 42.547C569.549 42.65 570.135 42.806 570.727 42.929C570.881 42.961 571.044 42.948 571.227 42.956C571.214 42.483 571.199 42.063 571.193 41.644C571.172 40.023 571.582 38.509 572.388 37.108C573.824 34.609 575.954 32.976 578.721 32.143C579.809 31.816 580.917 31.721 582.05 31.749C583.81 31.793 585.558 31.952 587.304 32.173C588.792 32.362 590.284 32.52 591.77 32.712C592.987 32.87 594.203 33.038 595.411 33.24C596.807 33.475 598.213 33.503 599.62 33.556C601.218 33.618 602.8 33.499 604.377 33.228C606.158 32.923 607.953 32.716 609.766 32.706C611.213 32.698 612.503 33.171 613.67 34.001C613.791 34.086 613.901 34.199 613.986 34.321C614.418 34.937 614.394 35.913 613.974 36.542C613.482 37.277 612.771 37.721 611.988 38.069C611.277 38.384 610.523 38.562 609.747 38.624C608.431 38.731 607.114 38.82 605.796 38.914C605.592 38.928 605.387 38.931 605.181 38.94C605.174 38.975 605.167 39.01 605.16 39.045L605.162 39.044ZM578.999 41.991L579.313 41.858C580.354 41.48 581.43 41.233 582.52 41.037L583.054 40.926C583.295 40.902 583.536 40.86 583.776 40.859C584.563 40.855 585.354 40.808 586.133 40.886C587.341 41.006 588.509 41.344 589.662 41.722C589.768 41.773 589.869 41.838 589.98 41.872C590.792 42.115 591.607 42.352 592.42 42.591C592.872 42.762 593.318 42.955 593.779 43.1C594.952 43.469 596.147 43.769 597.301 44.186C598.455 44.603 599.632 44.704 600.837 44.688C601.772 44.676 602.692 44.559 603.531 44.129C604.576 43.593 605.344 42.847 605.405 41.567C605.444 40.773 605.063 40.252 604.454 39.836C604.381 39.788 604.241 39.77 604.164 39.806C603.475 40.123 602.765 40.373 601.978 40.499C602.205 41.271 602.487 41.956 603.232 42.337C603.286 42.365 603.353 42.385 603.386 42.429C603.454 42.52 603.561 42.638 603.542 42.72C603.525 42.798 603.372 42.884 603.27 42.897C602.921 42.942 602.598 42.828 602.346 42.597C601.741 42.041 601.415 41.334 601.335 40.527C601.293 40.1 601.455 39.933 601.882 39.844C602.133 39.791 602.39 39.749 602.636 39.674C602.913 39.59 603.18 39.473 603.452 39.37C603.449 39.332 603.446 39.294 603.442 39.256C603.171 39.18 602.904 39.071 602.628 39.035C601.847 38.933 601.065 38.836 600.28 38.781C597.537 38.59 594.93 37.904 592.455 36.709C592.514 36.671 592.572 36.634 592.631 36.596C592.898 36.649 593.166 36.696 593.431 36.753C594.777 37.045 596.118 37.358 597.469 37.628C599.018 37.939 600.594 38.036 602.167 38.098C603.21 38.14 604.256 38.05 605.302 38.023C607.194 37.974 609.039 37.631 610.855 37.128C611.454 36.962 612.029 36.724 612.543 36.365C612.87 36.135 613.142 35.853 613.305 35.486C613.447 35.167 613.385 35.007 613.083 34.832C612.943 34.676 612.824 34.494 612.66 34.369C612.052 33.905 611.343 33.699 610.592 33.632C609.498 33.533 608.41 33.621 607.327 33.77C606.38 33.901 605.436 34.041 604.492 34.185C604.205 34.229 603.923 34.304 603.639 34.365C603.641 34.395 603.643 34.425 603.645 34.455C604.126 34.491 604.607 34.52 605.086 34.567C606.496 34.704 607.901 34.664 609.299 34.44C609.508 34.407 609.72 34.352 609.907 34.512C609.905 34.715 609.761 34.802 609.599 34.854C609.255 34.965 608.915 35.108 608.562 35.159C607.212 35.353 605.851 35.397 604.492 35.288C603.394 35.199 602.3 35.06 601.205 34.942C601.128 34.898 601.055 34.826 600.972 34.813C600.346 34.71 599.717 34.62 599.088 34.524C598.489 34.433 597.891 34.341 597.291 34.251C595.943 34.047 594.597 33.82 593.244 33.649C592.358 33.536 591.459 33.524 590.569 33.435C589.242 33.301 587.92 33.106 586.591 32.998C584.821 32.854 583.047 32.823 581.271 32.887C579.86 32.937 578.569 33.381 577.291 33.914C576.457 34.262 575.719 34.75 575.051 35.353C574.127 36.186 573.446 37.199 572.895 38.294C572.49 39.101 572.186 39.957 572.022 40.852C571.898 41.529 572.008 42.19 572.127 42.857C572.514 42.9 572.802 42.777 573.049 42.566C573.313 42.341 573.558 42.094 573.812 41.856L573.96 41.978C573.96 42.004 573.95 42.025 573.931 42.042C573.907 42.077 573.885 42.111 573.861 42.145C573.449 42.859 572.903 43.432 572.126 43.76C571.211 44.024 570.306 43.991 569.409 43.669C569.238 43.607 569.066 43.55 568.893 43.496C568.648 43.421 568.456 43.49 568.295 43.692C568.087 43.953 568.089 44.395 568.317 44.786C568.586 45.249 569.006 45.527 569.483 45.736C569.777 45.928 570.09 46.052 570.448 46.035C570.921 46.013 571.391 45.946 571.813 45.728C572.605 45.32 573.383 44.885 574.166 44.461C574.237 44.441 574.314 44.433 574.377 44.399C575.593 43.751 576.807 43.101 578.022 42.45C578.348 42.297 578.673 42.145 578.999 41.991Z" fill="#0B0907"/>
<path d="M601.202 34.942C602.299 35.059 603.392 35.199 604.49 35.287C605.85 35.397 607.21 35.353 608.559 35.158C608.913 35.107 609.254 34.965 609.596 34.853C609.758 34.801 609.903 34.715 609.904 34.512C610.572 34.352 611.189 34.594 611.814 34.758C612.176 34.852 612.478 35.037 612.665 35.375C612.569 35.411 612.469 35.439 612.379 35.486C611.902 35.74 611.442 36.029 610.949 36.246C610.609 36.397 610.228 36.462 609.862 36.548C609.069 36.733 608.281 36.954 607.478 37.071C606.581 37.203 605.671 37.258 604.765 37.307C604.072 37.343 603.376 37.333 602.681 37.312C601.987 37.291 601.295 37.226 600.602 37.186C598.998 37.092 597.415 36.863 595.848 36.508C595.258 36.375 594.663 36.264 594.07 36.141C593.299 35.98 592.518 35.86 591.762 35.647C590.258 35.223 588.755 35.32 587.264 35.629C586.291 35.831 585.343 36.15 584.386 36.424C584.288 36.453 584.204 36.536 584.114 36.594C584.126 36.624 584.137 36.654 584.15 36.685C584.277 36.669 584.407 36.661 584.534 36.638C585.246 36.503 585.954 36.337 586.671 36.237C587.344 36.142 588.027 36.124 588.704 36.058C589.778 35.953 590.81 36.17 591.836 36.446L592.452 36.712C594.927 37.906 597.534 38.592 600.277 38.783C601.062 38.838 601.844 38.935 602.625 39.037C602.902 39.073 603.168 39.182 603.439 39.258C603.442 39.297 603.445 39.334 603.449 39.372C603.178 39.475 602.911 39.592 602.633 39.676C602.387 39.751 602.131 39.794 601.878 39.846C601.452 39.935 601.29 40.102 601.332 40.529C601.412 41.337 601.738 42.043 602.343 42.599C602.595 42.831 602.918 42.944 603.267 42.899C603.369 42.887 603.522 42.801 603.539 42.723C603.558 42.641 603.451 42.522 603.383 42.432C603.35 42.387 603.282 42.366 603.229 42.339C602.484 41.958 602.202 41.273 601.975 40.501C602.761 40.376 603.472 40.126 604.161 39.808C604.238 39.773 604.379 39.79 604.451 39.839C605.06 40.253 605.44 40.775 605.402 41.57C605.341 42.849 604.573 43.595 603.528 44.131C602.689 44.561 601.769 44.678 600.834 44.69C599.63 44.706 598.452 44.606 597.298 44.188C596.144 43.771 594.948 43.47 593.776 43.102C593.315 42.956 592.869 42.764 592.417 42.594C592.592 42.608 592.77 42.612 592.942 42.64C593.166 42.676 593.387 42.728 593.608 42.777C594.547 42.984 595.502 42.953 596.451 42.958C596.888 42.96 597.327 42.878 597.76 42.806C597.967 42.772 598.163 42.676 598.365 42.608C598.276 42.518 598.206 42.502 598.141 42.512C597.404 42.622 596.665 42.605 595.924 42.604C594.644 42.602 593.395 42.422 592.156 42.115C591.51 41.954 590.859 41.815 590.205 41.688C590.031 41.655 589.826 41.534 589.659 41.724C588.506 41.347 587.338 41.009 586.13 40.888C585.351 40.81 584.56 40.857 583.773 40.861C583.532 40.862 583.292 40.905 583.051 40.929C583.663 40.626 584.333 40.553 584.993 40.553C586.185 40.553 587.379 40.604 588.57 40.678C589.518 40.736 590.445 40.615 591.374 40.481C591.44 40.471 591.499 40.415 591.655 40.328C590.968 40.353 590.396 40.393 589.823 40.39C588.132 40.381 586.446 40.193 584.75 40.252C584.043 40.277 583.417 40.473 582.784 40.716C582.639 40.772 582.51 40.853 582.517 41.039C581.427 41.235 580.351 41.483 579.31 41.86C579.165 41.905 579.02 41.95 578.874 41.995C578.588 42.114 578.302 42.233 578.015 42.352C577.888 42.397 577.754 42.428 577.635 42.49C576.757 42.948 575.875 43.403 575.007 43.88C574.708 44.045 574.443 44.268 574.162 44.464C573.378 44.888 572.601 45.323 571.809 45.732C571.387 45.95 570.917 46.016 570.444 46.038C570.087 46.056 569.772 45.93 569.48 45.74C569.438 45.553 569.426 45.353 569.347 45.184C569.23 44.932 569.208 44.7 569.358 44.417C569.493 44.421 569.642 44.409 569.784 44.435C570.677 44.594 571.447 44.342 572.122 43.762C572.899 43.435 573.445 42.862 573.857 42.147C573.881 42.113 573.903 42.078 573.927 42.044C573.946 42.027 573.955 42.005 573.956 41.98C574.121 41.855 574.162 41.69 574.116 41.495C574.429 41.15 574.772 40.827 575.048 40.455C575.973 39.211 577.096 38.166 578.298 37.203C578.792 36.807 579.313 36.427 579.937 36.258C580.445 36.119 580.968 36.035 581.485 35.93C581.639 35.899 581.797 35.879 581.977 35.848C581.878 35.522 581.626 35.517 581.446 35.532C580.756 35.594 580.048 35.622 579.385 35.801C578.279 36.1 577.429 36.856 576.586 37.587C575.706 38.35 574.955 39.235 574.228 40.141C574.103 40.296 573.907 40.394 573.744 40.518L573.742 40.517C573.775 40.358 573.78 40.186 573.847 40.042C574.256 39.152 574.732 38.305 575.373 37.548C576.251 36.508 577.317 35.719 578.513 35.091C579.375 34.638 580.327 34.43 581.27 34.244C582.443 34.014 583.64 33.955 584.838 33.991C585.033 33.997 585.23 34.002 585.425 34.001C585.802 33.999 586.183 33.958 586.556 33.992C587.714 34.098 588.868 34.242 590.025 34.35C591.002 34.442 591.981 34.506 592.96 34.577C594.178 34.666 595.399 34.75 596.617 34.837C597.911 34.929 599.212 34.893 600.502 35.07C600.725 35.1 600.967 34.991 601.2 34.946L601.202 34.942ZM575.665 42.012C575.901 41.851 576.134 41.685 576.374 41.529C577.976 40.489 579.66 39.634 581.563 39.278C581.74 39.239 581.917 39.2 582.094 39.162C581.379 38.983 580.681 38.954 579.979 39.053C580.355 38.913 580.721 38.699 581.109 38.647C582.35 38.482 583.584 38.155 584.855 38.393C585.062 38.431 585.264 38.433 585.467 38.326C585.273 38.11 585.271 38.113 585.106 38.053C583.68 37.543 582.23 37.638 580.801 37.966C579.376 38.294 578.049 38.874 576.896 39.802C576.104 40.439 575.343 41.092 574.821 41.987C574.596 42.373 574.28 42.707 574.008 43.066C573.915 43.188 573.827 43.314 573.736 43.438C573.761 43.458 573.787 43.478 573.813 43.498C574.338 43.226 574.696 42.756 575.115 42.359C575.298 42.243 575.482 42.127 575.665 42.012Z" fill="#F8D46A"/>
<path d="M573.745 40.516C573.908 40.392 574.105 40.295 574.229 40.139C574.956 39.234 575.707 38.349 576.587 37.586C577.43 36.854 578.281 36.098 579.386 35.799C580.05 35.62 580.757 35.591 581.448 35.531C581.627 35.515 581.88 35.52 581.978 35.847C581.797 35.876 581.641 35.897 581.486 35.929C580.97 36.034 580.447 36.118 579.938 36.256C579.314 36.426 578.793 36.806 578.3 37.201C577.096 38.164 575.974 39.21 575.05 40.454C574.774 40.826 574.43 41.148 574.118 41.493C574.015 41.615 573.912 41.735 573.809 41.856C573.556 42.094 573.311 42.341 573.047 42.567C572.8 42.777 572.511 42.9 572.124 42.858C572.006 42.191 571.895 41.529 572.019 40.852C572.183 39.957 572.487 39.102 572.893 38.295C573.444 37.199 574.125 36.187 575.049 35.354C575.717 34.751 576.455 34.262 577.289 33.914C578.565 33.381 579.858 32.937 581.268 32.887C583.045 32.824 584.819 32.853 586.588 32.998C587.917 33.107 589.24 33.302 590.567 33.435C591.457 33.525 592.355 33.538 593.242 33.649C594.595 33.82 595.94 34.047 597.289 34.251C597.888 34.341 598.487 34.434 599.086 34.524C599.714 34.619 600.343 34.711 600.97 34.814C601.052 34.827 601.125 34.899 601.202 34.943C600.969 34.988 600.726 35.097 600.504 35.067C599.213 34.891 597.913 34.926 596.618 34.834C595.399 34.748 594.18 34.664 592.961 34.575C591.982 34.503 591.003 34.439 590.027 34.347C588.869 34.239 587.715 34.095 586.557 33.99C586.183 33.955 585.803 33.995 585.426 33.998C585.231 33.999 585.035 33.994 584.839 33.988C583.641 33.953 582.444 34.011 581.272 34.242C580.329 34.428 579.377 34.635 578.514 35.088C577.318 35.716 576.251 36.505 575.374 37.545C574.735 38.303 574.259 39.149 573.848 40.039C573.781 40.183 573.777 40.355 573.743 40.514C573.722 40.578 573.7 40.642 573.679 40.707C573.673 40.718 573.667 40.73 573.66 40.742C573.665 40.729 573.669 40.716 573.674 40.703C573.698 40.641 573.722 40.579 573.745 40.516Z" fill="#E3A41D"/>
<path d="M591.838 36.444C590.812 36.168 589.78 35.95 588.706 36.056C588.028 36.122 587.345 36.14 586.673 36.235C585.956 36.335 585.249 36.502 584.536 36.636C584.409 36.659 584.28 36.667 584.152 36.683C584.14 36.652 584.128 36.622 584.116 36.592C584.207 36.534 584.289 36.451 584.388 36.422C585.345 36.148 586.293 35.829 587.266 35.627C588.757 35.318 590.26 35.221 591.765 35.645C592.52 35.858 593.302 35.979 594.072 36.139C594.664 36.262 595.26 36.373 595.85 36.506C597.417 36.861 599 37.09 600.604 37.184C601.297 37.224 601.99 37.289 602.684 37.31C603.378 37.332 604.074 37.341 604.767 37.305C605.673 37.256 606.583 37.201 607.48 37.069C608.283 36.952 609.071 36.73 609.864 36.546C610.231 36.461 610.612 36.395 610.952 36.244C611.444 36.027 611.905 35.738 612.381 35.484C612.47 35.437 612.571 35.409 612.667 35.373C612.845 35.525 612.909 35.36 612.96 35.25C613.02 35.118 613.044 34.97 613.084 34.83C613.385 35.004 613.447 35.164 613.306 35.483C613.142 35.85 612.871 36.133 612.543 36.362C612.029 36.722 611.454 36.96 610.856 37.125C609.04 37.629 607.195 37.972 605.302 38.021C604.257 38.048 603.209 38.138 602.167 38.096C600.594 38.034 599.018 37.936 597.469 37.626C596.119 37.355 594.778 37.043 593.432 36.751C593.166 36.693 592.898 36.646 592.631 36.594C592.367 36.543 592.103 36.492 591.839 36.441L591.838 36.444Z" fill="#FCF8D5"/>
<path d="M613.082 34.831C613.043 34.973 613.02 35.12 612.959 35.251C612.907 35.361 612.844 35.525 612.666 35.375C612.479 35.037 612.177 34.852 611.815 34.757C611.189 34.594 610.572 34.352 609.905 34.511C609.718 34.351 609.506 34.406 609.297 34.44C607.899 34.664 606.495 34.703 605.084 34.566C604.605 34.519 604.124 34.491 603.644 34.454C603.641 34.424 603.639 34.394 603.637 34.365C603.921 34.304 604.203 34.229 604.49 34.185C605.434 34.04 606.38 33.9 607.325 33.769C608.408 33.619 609.496 33.532 610.59 33.631C611.341 33.699 612.051 33.904 612.658 34.369C612.822 34.494 612.942 34.676 613.082 34.831Z" fill="#DB9F1E"/>
<path d="M572.124 43.761C571.449 44.341 570.681 44.593 569.786 44.433C569.644 44.408 569.495 44.42 569.36 44.415C569.21 44.699 569.232 44.93 569.35 45.182C569.429 45.352 569.44 45.552 569.482 45.738C569.004 45.529 568.584 45.251 568.315 44.788C568.087 44.397 568.084 43.955 568.294 43.693C568.455 43.492 568.647 43.422 568.892 43.498C569.065 43.552 569.237 43.609 569.408 43.67C570.304 43.993 571.209 44.026 572.124 43.761Z" fill="#DB9D1B"/>
<path d="M589.661 41.722C589.829 41.532 590.033 41.653 590.207 41.687C590.86 41.814 591.512 41.954 592.158 42.113C593.397 42.42 594.646 42.601 595.926 42.602C596.668 42.603 597.408 42.62 598.143 42.51C598.209 42.501 598.278 42.516 598.367 42.606C598.166 42.674 597.97 42.77 597.762 42.805C597.329 42.875 596.89 42.958 596.454 42.956C595.504 42.951 594.549 42.981 593.61 42.775C593.389 42.727 593.168 42.674 592.945 42.638C592.772 42.61 592.595 42.606 592.419 42.592C591.605 42.352 590.792 42.116 589.979 41.872C589.868 41.839 589.766 41.773 589.66 41.722H589.661Z" fill="#FCF6CD"/>
<path d="M582.52 41.037C582.513 40.85 582.642 40.77 582.787 40.714C583.42 40.471 584.046 40.275 584.753 40.25C586.449 40.191 588.135 40.379 589.826 40.388C590.399 40.391 590.971 40.351 591.658 40.326C591.503 40.413 591.444 40.469 591.377 40.479C590.447 40.613 589.521 40.734 588.573 40.676C587.382 40.602 586.188 40.551 584.996 40.551C584.336 40.551 583.666 40.625 583.054 40.927C582.876 40.963 582.698 41 582.52 41.037Z" fill="#FEFBD3"/>
<path d="M574.165 44.462C574.446 44.266 574.711 44.042 575.01 43.878C575.879 43.401 576.76 42.946 577.638 42.488C577.756 42.426 577.891 42.395 578.018 42.351C578.019 42.385 578.021 42.418 578.022 42.452C576.807 43.103 575.592 43.753 574.376 44.401C574.313 44.434 574.236 44.442 574.165 44.462Z" fill="#EDDDD2"/>
<path d="M578.021 42.451C578.02 42.418 578.019 42.384 578.018 42.35C578.305 42.231 578.591 42.112 578.877 41.992C578.918 41.992 578.958 41.992 578.999 41.991C578.673 42.144 578.348 42.297 578.021 42.451Z" fill="#DBC0AD"/>
<path d="M591.838 36.444C592.102 36.495 592.366 36.546 592.63 36.596C592.572 36.634 592.513 36.672 592.455 36.709C592.249 36.621 592.043 36.533 591.838 36.444Z" fill="#4D3B24"/>
<path d="M573.809 41.856C573.912 41.735 574.015 41.614 574.118 41.493C574.163 41.688 574.122 41.853 573.957 41.978C573.908 41.937 573.859 41.897 573.809 41.856Z" fill="#5C471E"/>
<path d="M578.999 41.991C578.958 41.992 578.918 41.992 578.878 41.992C579.023 41.947 579.168 41.902 579.313 41.858C579.208 41.902 579.104 41.947 578.999 41.991Z" fill="#D3B09D"/>
<path d="M575.115 42.359C574.696 42.756 574.338 43.225 573.813 43.498C573.787 43.478 573.762 43.458 573.736 43.439C573.826 43.315 573.914 43.189 574.007 43.066C574.28 42.708 574.596 42.373 574.821 41.987C575.343 41.092 576.104 40.439 576.896 39.802C578.049 38.874 579.375 38.293 580.801 37.966C582.23 37.638 583.68 37.542 585.106 38.053C585.272 38.113 585.273 38.11 585.467 38.326C585.264 38.433 585.061 38.431 584.855 38.393C583.584 38.154 582.35 38.482 581.109 38.647C580.721 38.699 580.355 38.913 579.979 39.053C579.741 39.132 579.502 39.212 579.264 39.291C578.99 39.414 578.706 39.518 578.442 39.661C577.33 40.262 576.39 41.085 575.488 41.953C575.364 42.089 575.24 42.224 575.115 42.359Z" fill="#FDFAD6"/>
<path d="M575.488 41.953C576.39 41.084 577.33 40.261 578.442 39.661C578.706 39.519 578.99 39.413 579.264 39.291C579.68 39.246 580.094 39.171 580.51 39.166C580.861 39.161 581.212 39.238 581.562 39.278C579.658 39.634 577.975 40.489 576.373 41.529C576.133 41.686 575.9 41.851 575.664 42.012C575.605 41.992 575.546 41.973 575.488 41.953Z" fill="#16120B"/>
<path d="M581.563 39.277C581.212 39.237 580.86 39.16 580.511 39.165C580.095 39.17 579.68 39.246 579.265 39.29C579.503 39.211 579.742 39.131 579.979 39.052C580.68 38.953 581.38 38.982 582.094 39.161C581.917 39.2 581.74 39.239 581.563 39.277Z" fill="#795A2E"/>
<path d="M575.488 41.953C575.547 41.973 575.606 41.992 575.664 42.011C575.48 42.127 575.298 42.243 575.114 42.359C575.239 42.223 575.364 42.089 575.488 41.953Z" fill="#5F5334"/>
<path d="M573.679 40.707C573.7 40.643 573.722 40.579 573.743 40.515L573.745 40.516C573.722 40.578 573.698 40.642 573.674 40.704L573.679 40.707Z" fill="#F8D46A"/>
<path d="M573.674 40.704C573.669 40.717 573.665 40.73 573.66 40.743C573.666 40.731 573.672 40.72 573.679 40.707L573.674 40.704Z" fill="#F8D46A"/>
</g>
<path d="M622.477 50.986C622.477 33.049 607.713 18.5083 589.5 18.5083C571.287 18.5083 556.523 33.049 556.523 50.986C556.523 68.922 571.287 83.463 589.5 83.463C607.713 83.463 622.477 68.922 622.477 50.986Z" stroke="#0D0E34" stroke-width="3"/>
</g>
<defs>
<filter id="filter0_d_1_101" x="555.023" y="17.0083" width="68.954" height="68.9547" filterUnits="userSpaceOnUse" color-interpolation-filters="sRGB">
<feFlood flood-opacity="0" result="BackgroundImageFix"/>
<feColorMatrix in="SourceAlpha" type="matrix" values="0 0 0 0 0 0 0 0 0 0 0 0 0 0 0 0 0 0 127 0" result="hardAlpha"/>
<feOffset dy="1"/>
<feComposite in2="hardAlpha" operator="out"/>
<feColorMatrix type="matrix" values="0 0 0 0 0 0 0 0 0 0 0 0 0 0 0 0 0 0 0.25 0"/>
<feBlend mode="normal" in2="BackgroundImageFix" result="effect1_dropShadow_1_101"/>
<feBlend mode="normal" in="SourceGraphic" in2="effect1_dropShadow_1_101" result="shape"/>
</filter>
<filter id="filter1_d_1_101" x="571.778" y="39.752" width="34.4459" height="34.9563" filterUnits="userSpaceOnUse" color-interpolation-filters="sRGB">
<feFlood flood-opacity="0" result="BackgroundImageFix"/>
<feColorMatrix in="SourceAlpha" type="matrix" values="0 0 0 0 0 0 0 0 0 0 0 0 0 0 0 0 0 0 127 0" result="hardAlpha"/>
<feOffset dy="1"/>
<feComposite in2="hardAlpha" operator="out"/>
<feColorMatrix type="matrix" values="0 0 0 0 0.101961 0 0 0 0 0.0862745 0 0 0 0 0.313726 0 0 0 0.44 0"/>
<feBlend mode="normal" in2="BackgroundImageFix" result="effect1_dropShadow_1_101"/>
<feBlend mode="normal" in="SourceGraphic" in2="effect1_dropShadow_1_101" result="shape"/>
</filter>
</defs>
</svg>
