<svg width="41" height="35" viewBox="0 0 41 35" fill="none" xmlns="http://www.w3.org/2000/svg">
<g filter="url(#filter0_d_133_3012)">
<path d="M38.9204 0.669656C38.8898 0.526402 38.8212 0.393919 38.7217 0.285976C38.6223 0.178032 38.4956 0.0985676 38.3549 0.0558398C37.8425 -0.0458677 37.312 -0.00815146 36.8194 0.165017C36.8194 0.165017 2.65002 12.388 0.697699 13.7418C0.278473 14.0353 0.137106 14.2027 0.0664228 14.4017C-0.269933 15.3721 0.780569 15.7919 0.780569 15.7919L9.58675 18.6474C9.73524 18.6749 9.88818 18.6666 10.0328 18.6232C12.0363 17.3616 30.1897 5.95139 31.2378 5.57048C31.4035 5.52196 31.5254 5.57048 31.4815 5.68693C31.0623 7.14262 15.3803 21.0202 15.2975 21.1027C15.2556 21.1372 15.2226 21.1812 15.2014 21.231C15.1802 21.2809 15.1714 21.335 15.1756 21.389L14.3542 29.9484C14.3542 29.9484 14.0081 32.6172 16.6843 29.9484C18.168 28.479 19.713 27.0722 21.3153 25.7318C24.3425 27.8134 27.6037 30.1134 29.0076 31.3119C29.243 31.5403 29.5225 31.7189 29.8291 31.8369C30.1358 31.9549 30.4632 32.0099 30.7918 31.9985C31.1962 31.9484 31.5758 31.7774 31.8804 31.5079C32.1851 31.2385 32.4004 30.8833 32.4979 30.4895C32.4979 30.4895 38.74 5.56077 38.9496 2.20541C38.9667 1.87788 38.9984 1.67893 38.9984 1.43632C39.0071 1.17844 38.9809 0.920559 38.9204 0.669656Z" fill="#000129"/>
</g>
<defs>
<filter id="filter0_d_133_3012" x="0" y="0" width="41" height="35" filterUnits="userSpaceOnUse" color-interpolation-filters="sRGB">
<feFlood flood-opacity="0" result="BackgroundImageFix"/>
<feColorMatrix in="SourceAlpha" type="matrix" values="0 0 0 0 0 0 0 0 0 0 0 0 0 0 0 0 0 0 127 0" result="hardAlpha"/>
<feOffset dx="2" dy="3"/>
<feComposite in2="hardAlpha" operator="out"/>
<feColorMatrix type="matrix" values="0 0 0 0 0 0 0 0 0 0 0 0 0 0 0 0 0 0 0.15 0"/>
<feBlend mode="normal" in2="BackgroundImageFix" result="effect1_dropShadow_133_3012"/>
<feBlend mode="normal" in="SourceGraphic" in2="effect1_dropShadow_133_3012" result="shape"/>
</filter>
</defs>
</svg>
